<svg xmlns="http://www.w3.org/2000/svg" width="71" height="61.31" viewBox="0 0 71 61.31">
  <metadata><?xpacket begin="﻿" id="W5M0MpCehiHzreSzNTczkc9d"?>
<x:xmpmeta xmlns:x="adobe:ns:meta/" x:xmptk="Adobe XMP Core 5.6-c138 79.159824, 2016/09/14-01:09:01        ">
   <rdf:RDF xmlns:rdf="http://www.w3.org/1999/02/22-rdf-syntax-ns#">
      <rdf:Description rdf:about=""/>
   </rdf:RDF>
</x:xmpmeta>
                                                                                                    
                                                                                                    
                                                                                                    
                                                                                                    
                                                                                                    
                                                                                                    
                                                                                                    
                                                                                                    
                                                                                                    
                                                                                                    
                                                                                                    
                                                                                                    
                                                                                                    
                                                                                                    
                                                                                                    
                                                                                                    
                                                                                                    
                                                                                                    
                                                                                                    
                                                                                                    
                           
<?xpacket end="w"?></metadata>
<defs>
    <style>
      .cls-1 {
        fill: #1f2847;
        fill-opacity: 0;
        stroke: #4fceff;
        stroke-linejoin: round;
        stroke-width: 2px;
        fill-rule: evenodd;
      }
    </style>
  </defs>
  <path class="cls-1" d="M1451.64,1144.21a6.864,6.864,0,0,0-6.33,4.22h-1.94V1139a4.485,4.485,0,0,0-4.48-4.48H1417.8v-2.89a6.845,6.845,0,1,0-5.27,0v2.89h-3.42a4.485,4.485,0,0,0-4.48,4.48v9.43h-1.94a6.85,6.85,0,1,0,0,5.26h1.94v13.76a4.485,4.485,0,0,0,4.48,4.48h2.24v1.13a4.485,4.485,0,0,0,4.48,4.48h16.34a4.485,4.485,0,0,0,4.48-4.48v-1.13h2.24a4.485,4.485,0,0,0,4.48-4.48v-13.76h1.94A6.852,6.852,0,1,0,1451.64,1144.21Zm-39.84,4.78a4.885,4.885,0,1,1,4.88,4.88A4.882,4.882,0,0,1,1411.8,1148.99Zm18.27,15.67h-12.14a2.315,2.315,0,0,1,0-4.63h12.14A2.315,2.315,0,0,1,1430.07,1164.66Zm1.25-10.79a4.885,4.885,0,1,1,4.88-4.88A4.882,4.882,0,0,1,1431.32,1153.87Zm4.99-22.11v2.88h-5.4v-2.88A7.04,7.04,0,1,1,1436.31,1131.76Z" transform="translate(-1388.5 -1117.22)"/>
</svg>
