<svg xmlns="http://www.w3.org/2000/svg" width="42" height="42" viewBox="0 0 42 42">
  <metadata><?xpacket begin="﻿" id="W5M0MpCehiHzreSzNTczkc9d"?>
<x:xmpmeta xmlns:x="adobe:ns:meta/" x:xmptk="Adobe XMP Core 5.6-c138 79.159824, 2016/09/14-01:09:01        ">
   <rdf:RDF xmlns:rdf="http://www.w3.org/1999/02/22-rdf-syntax-ns#">
      <rdf:Description rdf:about=""/>
   </rdf:RDF>
</x:xmpmeta>
                                                                                                    
                                                                                                    
                                                                                                    
                                                                                                    
                                                                                                    
                                                                                                    
                                                                                                    
                                                                                                    
                                                                                                    
                                                                                                    
                                                                                                    
                                                                                                    
                                                                                                    
                                                                                                    
                                                                                                    
                                                                                                    
                                                                                                    
                                                                                                    
                                                                                                    
                                                                                                    
                           
<?xpacket end="w"?></metadata>
<defs>
    <style>
      .cls-1 {
        fill: #2e3653;
        fill-rule: evenodd;
      }
    </style>
  </defs>
  <path class="cls-1" d="M1231.63,3873.44c-0.79-.11-1.6-0.23-2.41-0.33a0.238,0.238,0,0,1-.2-0.17,17.014,17.014,0,0,0-1.62-3.89,0.246,0.246,0,0,1,.03-0.26c0.49-.65.99-1.3,1.46-1.95a2.2,2.2,0,0,0-.21-2.86l-2.66-2.66a2.2,2.2,0,0,0-2.86-.21c-0.64.47-1.3,0.96-1.95,1.46a0.246,0.246,0,0,1-.26.03,16.549,16.549,0,0,0-3.89-1.61,0.265,0.265,0,0,1-.17-0.21c-0.1-.81-0.22-1.62-0.33-2.41a2.222,2.222,0,0,0-2.18-1.87h-3.76a2.222,2.222,0,0,0-2.18,1.87c-0.11.79-.23,1.6-0.33,2.41a0.265,0.265,0,0,1-.17.21,16.549,16.549,0,0,0-3.89,1.61,0.246,0.246,0,0,1-.26-0.03c-0.65-.5-1.31-0.99-1.95-1.46a2.2,2.2,0,0,0-2.86.21l-2.66,2.66a2.2,2.2,0,0,0-.21,2.86c0.47,0.65.97,1.3,1.46,1.95a0.246,0.246,0,0,1,.03.26,17.014,17.014,0,0,0-1.62,3.89,0.238,0.238,0,0,1-.2.17c-0.81.1-1.62,0.22-2.41,0.33a2.213,2.213,0,0,0-1.87,2.18v3.76a2.213,2.213,0,0,0,1.87,2.18c0.79,0.11,1.6.23,2.41,0.33a0.238,0.238,0,0,1,.2.17,17.014,17.014,0,0,0,1.62,3.89,0.246,0.246,0,0,1-.03.26c-0.49.65-.99,1.31-1.46,1.95a2.2,2.2,0,0,0,.21,2.86l2.66,2.66a2.2,2.2,0,0,0,2.86.21c0.64-.47,1.3-0.96,1.95-1.46a0.246,0.246,0,0,1,.26-0.03,17.014,17.014,0,0,0,3.89,1.62,0.238,0.238,0,0,1,.17.2c0.1,0.81.22,1.62,0.33,2.41a2.213,2.213,0,0,0,2.18,1.87h3.76a2.213,2.213,0,0,0,2.18-1.87c0.11-.79.23-1.6,0.33-2.41a0.238,0.238,0,0,1,.17-0.2,17.014,17.014,0,0,0,3.89-1.62,0.246,0.246,0,0,1,.26.03c0.65,0.5,1.31.99,1.95,1.46a2.2,2.2,0,0,0,2.86-.21l2.66-2.66a2.2,2.2,0,0,0,.21-2.86c-0.47-.65-0.97-1.3-1.46-1.95a0.246,0.246,0,0,1-.03-0.26,17.014,17.014,0,0,0,1.62-3.89,0.238,0.238,0,0,1,.2-0.17c0.81-.1,1.62-0.22,2.41-0.33a2.213,2.213,0,0,0,1.87-2.18v-3.76A2.213,2.213,0,0,0,1231.63,3873.44Zm-0.09,5.94a0.247,0.247,0,0,1-.2.24c-0.78.11-1.58,0.22-2.38,0.33a2.2,2.2,0,0,0-1.84,1.59,15.213,15.213,0,0,1-1.42,3.44,2.2,2.2,0,0,0,.17,2.43c0.49,0.64.98,1.28,1.45,1.91a0.257,0.257,0,0,1-.03.32l-2.65,2.65a0.257,0.257,0,0,1-.32.03c-0.63-.47-1.27-0.96-1.91-1.45a2.2,2.2,0,0,0-2.43-.17,15.213,15.213,0,0,1-3.44,1.42,2.2,2.2,0,0,0-1.59,1.84c-0.11.8-.22,1.6-0.33,2.38a0.247,0.247,0,0,1-.24.2h-3.76a0.247,0.247,0,0,1-.24-0.2c-0.11-.78-0.22-1.58-0.33-2.38a2.2,2.2,0,0,0-1.59-1.84,15.213,15.213,0,0,1-3.44-1.42,2.215,2.215,0,0,0-1.08-.29,2.247,2.247,0,0,0-1.35.46c-0.64.49-1.28,0.98-1.91,1.45a0.242,0.242,0,0,1-.31-0.03l-2.66-2.65a0.257,0.257,0,0,1-.03-0.32c0.47-.63.96-1.27,1.45-1.91a2.2,2.2,0,0,0,.17-2.43,15.213,15.213,0,0,1-1.42-3.44,2.2,2.2,0,0,0-1.84-1.59c-0.8-.1-1.6-0.22-2.38-0.33a0.247,0.247,0,0,1-.2-0.24v-3.76a0.247,0.247,0,0,1,.2-0.24c0.78-.11,1.58-0.22,2.38-0.33a2.2,2.2,0,0,0,1.84-1.59,15.213,15.213,0,0,1,1.42-3.44,2.2,2.2,0,0,0-.17-2.43c-0.49-.64-0.98-1.28-1.45-1.91a0.242,0.242,0,0,1,.03-0.31l2.65-2.66a0.257,0.257,0,0,1,.32-0.03c0.63,0.47,1.27.96,1.91,1.45a2.2,2.2,0,0,0,2.43.17,15.213,15.213,0,0,1,3.44-1.42,2.2,2.2,0,0,0,1.59-1.84c0.11-.8.22-1.6,0.33-2.38a0.247,0.247,0,0,1,.24-0.2h3.76a0.247,0.247,0,0,1,.24.2c0.11,0.78.22,1.58,0.33,2.38a2.2,2.2,0,0,0,1.59,1.84,15.213,15.213,0,0,1,3.44,1.42,2.2,2.2,0,0,0,2.43-.17c0.64-.49,1.28-0.98,1.91-1.45a0.257,0.257,0,0,1,.32.03l2.65,2.66a0.242,0.242,0,0,1,.03.31c-0.47.63-.96,1.27-1.45,1.91a2.2,2.2,0,0,0-.17,2.43,15.213,15.213,0,0,1,1.42,3.44,2.2,2.2,0,0,0,1.84,1.59c0.8,0.11,1.6.22,2.38,0.33a0.247,0.247,0,0,1,.2.24v3.76h0Zm-19.04-11a9.12,9.12,0,1,0,9.12,9.12A9.129,9.129,0,0,0,1212.5,3868.38Zm0,16.28a7.16,7.16,0,1,1,7.16-7.16A7.166,7.166,0,0,1,1212.5,3884.66Z" transform="translate(-1191.5 -3856.5)"/>
</svg>
