<svg xmlns="http://www.w3.org/2000/svg" width="41" height="33" viewBox="0 0 41 33">
  <metadata><?xpacket begin="﻿" id="W5M0MpCehiHzreSzNTczkc9d"?>
<x:xmpmeta xmlns:x="adobe:ns:meta/" x:xmptk="Adobe XMP Core 5.6-c138 79.159824, 2016/09/14-01:09:01        ">
   <rdf:RDF xmlns:rdf="http://www.w3.org/1999/02/22-rdf-syntax-ns#">
      <rdf:Description rdf:about=""/>
   </rdf:RDF>
</x:xmpmeta>
                                                                                                    
                                                                                                    
                                                                                                    
                                                                                                    
                                                                                                    
                                                                                                    
                                                                                                    
                                                                                                    
                                                                                                    
                                                                                                    
                                                                                                    
                                                                                                    
                                                                                                    
                                                                                                    
                                                                                                    
                                                                                                    
                                                                                                    
                                                                                                    
                                                                                                    
                                                                                                    
                           
<?xpacket end="w"?></metadata>
<defs>
    <style>
      .cls-1 {
        fill: #2e3653;
        fill-rule: evenodd;
      }
    </style>
  </defs>
  <path class="cls-1" d="M1228.51,4129.26a4.96,4.96,0,0,0-1.56,8.57l-3.41,6.76a4.937,4.937,0,0,0-2.82.07,5.034,5.034,0,0,0-2.38,1.69l-6.82-3.45a4.952,4.952,0,1,0-7.89,2.59l-3.41,6.76a4.855,4.855,0,0,0-2.82.08,4.938,4.938,0,1,0,4.65.84l3.41-6.75a4.925,4.925,0,0,0,5.13-1.69l6.87,3.47a4.864,4.864,0,0,0,.1,2.72,4.954,4.954,0,1,0,7.81-5.41l3.41-6.76a4.855,4.855,0,0,0,2.82-.08A4.952,4.952,0,0,0,1228.51,4129.26Zm-28.65,30.53a2.906,2.906,0,1,1,1.85-3.66A2.908,2.908,0,0,1,1199.86,4159.79Zm7.78-15.4a2.9,2.9,0,1,1,1.85-3.67A2.912,2.912,0,0,1,1207.64,4144.39Zm15.53,7.74a2.9,2.9,0,1,1,1.86-3.67A2.9,2.9,0,0,1,1223.17,4152.13Zm7.79-15.4a2.906,2.906,0,1,1,1.85-3.67A2.912,2.912,0,0,1,1230.96,4136.73Zm-22.84,12.47a1.037,1.037,0,0,0-1.38.45l-1.33,2.63a1.037,1.037,0,0,0,.45,1.38,1.09,1.09,0,0,0,.79.06,1.066,1.066,0,0,0,.59-0.52l1.33-2.62A1.037,1.037,0,0,0,1208.12,4149.2Zm15.03-11.82a1.028,1.028,0,0,0-1.38.45l-1.33,2.63a1.025,1.025,0,0,0,.45,1.37,1.023,1.023,0,0,0,1.38-.45l1.33-2.63A1.025,1.025,0,0,0,1223.15,4137.38Z" transform="translate(-1194 -4129)"/>
</svg>
