<svg xmlns="http://www.w3.org/2000/svg" width="42" height="35.06" viewBox="0 0 42 35.06">
  <metadata><?xpacket begin="﻿" id="W5M0MpCehiHzreSzNTczkc9d"?>
<x:xmpmeta xmlns:x="adobe:ns:meta/" x:xmptk="Adobe XMP Core 5.6-c138 79.159824, 2016/09/14-01:09:01        ">
   <rdf:RDF xmlns:rdf="http://www.w3.org/1999/02/22-rdf-syntax-ns#">
      <rdf:Description rdf:about=""/>
   </rdf:RDF>
</x:xmpmeta>
                                                                                                    
                                                                                                    
                                                                                                    
                                                                                                    
                                                                                                    
                                                                                                    
                                                                                                    
                                                                                                    
                                                                                                    
                                                                                                    
                                                                                                    
                                                                                                    
                                                                                                    
                                                                                                    
                                                                                                    
                                                                                                    
                                                                                                    
                                                                                                    
                                                                                                    
                                                                                                    
                           
<?xpacket end="w"?></metadata>
<defs>
    <style>
      .cls-1 {
        fill: #2e3653;
        fill-rule: evenodd;
      }
    </style>
  </defs>
  <path class="cls-1" d="M707.726,4013.35a4.817,4.817,0,0,0-3.75-2.03c-0.031,0-.063-0.01-0.1-0.01a3.706,3.706,0,0,1-3.679-3.27,6.944,6.944,0,0,0,1.5-1.51,9.471,9.471,0,0,0,1.707-4.4,0.943,0.943,0,0,0,.163-0.26,7.4,7.4,0,0,0,.577-2.89,6.8,6.8,0,0,0-6.528-7.02,6.034,6.034,0,0,0-2.688.63,4.172,4.172,0,0,0-.933.17c-3.009.87-4.71,4.5-3.791,8.11a8.021,8.021,0,0,0,.35,1.06,0.857,0.857,0,0,0,.154.24,8.588,8.588,0,0,0,3.2,5.86,3.7,3.7,0,0,1-3.68,3.28c-0.03,0-.058.01-0.087,0.01a4.815,4.815,0,0,0-4.64,4.81v5.17a0.875,0.875,0,0,0,.875.88h15.459a0.875,0.875,0,1,0,0-1.75H687.25v-4.3a3.072,3.072,0,0,1,3.062-3.07H690.4a5.358,5.358,0,0,0,1.793-.37l4.142,5.98a0.87,0.87,0,0,0,1.438,0l4.143-5.98a5.353,5.353,0,0,0,1.793.37H703.8a3.077,3.077,0,0,1,2.5,1.3,0.878,0.878,0,0,0,.716.37,0.861,0.861,0,0,0,.5-0.16A0.875,0.875,0,0,0,707.726,4013.35Zm-13.244-18.91a2.862,2.862,0,0,1,.721-0.12,0.939,0.939,0,0,0,.368-0.1,4.372,4.372,0,0,1,2.045-.51,5.03,5.03,0,0,1,4.775,5.1,3.114,3.114,0,0,0-1.89-.64h-4.575a1.053,1.053,0,0,1-.972-0.66,1.026,1.026,0,0,0-1.946.13,6.025,6.025,0,0,1-1.207,2.34C691.348,3997.44,692.49,3995.01,694.482,3994.44Zm-2.052,7.41a7.784,7.784,0,0,0,1.814-2.49s0.006,0,.01.01a2.788,2.788,0,0,0,1.672.55H700.5a1.384,1.384,0,0,1,1.25.79,8.131,8.131,0,0,1-1.461,4.78,4.069,4.069,0,0,1-3.237,1.85,3.983,3.983,0,0,1-3.054-1.62A7.606,7.606,0,0,1,692.43,4001.85Zm4.623,14.79-3.348-4.83a5.5,5.5,0,0,0,1.83-2.95,5.146,5.146,0,0,0,1.518.23,4.866,4.866,0,0,0,1.519-.23,5.509,5.509,0,0,0,1.83,2.95Zm25.807-.46h-0.086a3.712,3.712,0,0,1-3.681-3.29,7.782,7.782,0,0,0,2.537-3.37,0.888,0.888,0,0,0,.578.58,0.77,0.77,0,0,0,.259.04,0.867,0.867,0,0,0,.69-0.34,9.2,9.2,0,0,0-.289-11.28,6.447,6.447,0,0,0-4.84-2.38c-0.1,0-.337.01-0.376,0.01a6.641,6.641,0,0,0-2.941-.59,7.156,7.156,0,0,0-5.445,2.95,10.213,10.213,0,0,0-2,6.55,10.453,10.453,0,0,0,.1,1.16,10.615,10.615,0,0,0,.852,2.96,0.883,0.883,0,0,0,.743.51,0.87,0.87,0,0,0,.8-0.42c0.07-.11.161-0.26,0.261-0.4a8.62,8.62,0,0,0,1.743,3.09,6.815,6.815,0,0,0,1.039.94,3.713,3.713,0,0,1-3.68,3.28h-0.087a4.814,4.814,0,0,0-4.639,4.81v5.18a0.872,0.872,0,0,0,.874.87h21.357a0.873,0.873,0,0,0,.875-0.87v-5.18A4.815,4.815,0,0,0,722.86,4016.18Zm-13.562-9.17a9.106,9.106,0,0,1-.2-1.04,8.9,8.9,0,0,1,1.559-6.39,5.39,5.39,0,0,1,4.112-2.27,4.993,4.993,0,0,1,2.331.51,0.887,0.887,0,0,0,.422.1c0.016-.01.465-0.03,0.478-0.03a4.739,4.739,0,0,1,3.544,1.77,7.137,7.137,0,0,1,1.653,4.45,7.637,7.637,0,0,1-.374,2.65c-0.083-.22-0.175-0.44-0.277-0.65a7.8,7.8,0,0,0-4-3.92,0.864,0.864,0,0,0-.687,0,0.905,0.905,0,0,0-.473.5,6.681,6.681,0,0,1-.419.91,2.6,2.6,0,0,1-2.409,1.27h-0.465a7.114,7.114,0,0,0-2.2.43A7.672,7.672,0,0,0,709.3,4007.01Zm2.153,0.47a5.1,5.1,0,0,1,2.692-.86h0.349a4.345,4.345,0,0,0,4-2.16c0.048-.09.094-0.18,0.14-0.27a6.179,6.179,0,0,1,1.992,2.03c0,0.03-.008.05-0.01,0.08a7.8,7.8,0,0,1-1.613,4.29,4.014,4.014,0,0,1-3.054,1.62C713.883,4012.21,712.051,4010.25,711.451,4007.48Zm2.978,6.24a4.921,4.921,0,0,0,3.036,0,5.482,5.482,0,0,0,2.61,3.49,4.283,4.283,0,0,1-8.256,0A5.482,5.482,0,0,0,714.429,4013.72Zm11.321,11.57H706.144v-4.3a3.062,3.062,0,0,1,3.062-3.06,0.251,0.251,0,0,0,.086-0.01,5.145,5.145,0,0,0,.884-0.1,6.031,6.031,0,0,0,11.542,0,5.145,5.145,0,0,0,.883.1,0.259,0.259,0,0,0,.087.01,3.062,3.062,0,0,1,3.062,3.06v4.3Z" transform="translate(-685.5 -3991.97)"/>
</svg>
