<svg xmlns="http://www.w3.org/2000/svg" width="42" height="32.32" viewBox="0 0 42 32.32">
  <metadata><?xpacket begin="﻿" id="W5M0MpCehiHzreSzNTczkc9d"?>
<x:xmpmeta xmlns:x="adobe:ns:meta/" x:xmptk="Adobe XMP Core 5.6-c138 79.159824, 2016/09/14-01:09:01        ">
   <rdf:RDF xmlns:rdf="http://www.w3.org/1999/02/22-rdf-syntax-ns#">
      <rdf:Description rdf:about=""/>
   </rdf:RDF>
</x:xmpmeta>
                                                                                                    
                                                                                                    
                                                                                                    
                                                                                                    
                                                                                                    
                                                                                                    
                                                                                                    
                                                                                                    
                                                                                                    
                                                                                                    
                                                                                                    
                                                                                                    
                                                                                                    
                                                                                                    
                                                                                                    
                                                                                                    
                                                                                                    
                                                                                                    
                                                                                                    
                                                                                                    
                           
<?xpacket end="w"?></metadata>
<defs>
    <style>
      .cls-1 {
        fill: #2e3653;
        fill-rule: evenodd;
      }
    </style>
  </defs>
  <path class="cls-1" d="M1229.99,4002.9h-4.27v-6.04a3.506,3.506,0,0,0-3.51-3.5h-27.2a3.506,3.506,0,0,0-3.51,3.5v15.74a3.506,3.506,0,0,0,3.51,3.5h4.27v6.04a3.506,3.506,0,0,0,3.51,3.5h27.2a3.506,3.506,0,0,0,3.51-3.5V4006.4A3.506,3.506,0,0,0,1229.99,4002.9Zm-36.49-6.04a1.513,1.513,0,0,1,1.51-1.5h27.2a1.513,1.513,0,0,1,1.51,1.5v1.4H1193.5v-1.4Zm5.78,9.54v7.7h-4.27a1.513,1.513,0,0,1-1.51-1.5v-7.69h6.12A3.4,3.4,0,0,0,1199.28,4006.4Zm-5.78-3.5v-2.63h30.22v2.63H1193.5Zm36.49,20.74h-27.2a1.513,1.513,0,0,1-1.51-1.5V4006.4a1.5,1.5,0,0,1,1.38-1.49h22.06c0.03,0,.07-0.01.11-0.01h5.16a1.507,1.507,0,0,1,1.51,1.5v15.74h0A1.513,1.513,0,0,1,1229.99,4023.64Zm-10.58-14.2a4.842,4.842,0,0,0-3.02,1.06,4.787,4.787,0,0,0-3.02-1.06,4.83,4.83,0,1,0,0,9.66,4.787,4.787,0,0,0,3.02-1.06A4.83,4.83,0,1,0,1219.41,4009.44Zm-4.29,7.05a2.83,2.83,0,1,1,0-4.44A4.833,4.833,0,0,0,1215.12,4016.49Zm4.29,0.61a2.83,2.83,0,1,1,2.82-2.83A2.834,2.834,0,0,1,1219.41,4017.1Z" transform="translate(-1191.5 -3993.34)"/>
</svg>
