<svg xmlns="http://www.w3.org/2000/svg" width="41.094" height="61.31" viewBox="0 0 41.094 61.31">
  <metadata><?xpacket begin="﻿" id="W5M0MpCehiHzreSzNTczkc9d"?>
<x:xmpmeta xmlns:x="adobe:ns:meta/" x:xmptk="Adobe XMP Core 5.6-c138 79.159824, 2016/09/14-01:09:01        ">
   <rdf:RDF xmlns:rdf="http://www.w3.org/1999/02/22-rdf-syntax-ns#">
      <rdf:Description rdf:about=""/>
   </rdf:RDF>
</x:xmpmeta>
                                                                                                    
                                                                                                    
                                                                                                    
                                                                                                    
                                                                                                    
                                                                                                    
                                                                                                    
                                                                                                    
                                                                                                    
                                                                                                    
                                                                                                    
                                                                                                    
                                                                                                    
                                                                                                    
                                                                                                    
                                                                                                    
                                                                                                    
                                                                                                    
                                                                                                    
                                                                                                    
                           
<?xpacket end="w"?></metadata>
<defs>
    <style>
      .cls-1 {
        fill: #1f2847;
        fill-opacity: 0;
        stroke: #858eff;
        stroke-linejoin: round;
        stroke-width: 2px;
        fill-rule: evenodd;
      }
    </style>
  </defs>
  <path class="cls-1" d="M815.988,1136.86v-9.43a4.484,4.484,0,0,0-4.478-4.48H790.085v-2.89a6.852,6.852,0,1,0-5.265,0v2.89H781.4a4.484,4.484,0,0,0-4.478,4.48v28.45a4.485,4.485,0,0,0,4.479,4.48h2.241v1.13a4.484,4.484,0,0,0,4.478,4.48H804.79a4.485,4.485,0,0,0,4.479-4.48v-1.13h2.241a4.484,4.484,0,0,0,4.478-4.48v-19.02Zm-31.907.56a4.886,4.886,0,1,1,4.886,4.88A4.889,4.889,0,0,1,784.081,1137.42Zm18.6,15.67H790.22a2.315,2.315,0,0,1,0-4.63h12.465A2.315,2.315,0,0,1,802.685,1153.09Zm1.628-10.79a4.885,4.885,0,1,1,4.885-4.88A4.886,4.886,0,0,1,804.313,1142.3Zm4.621-22.11v2.88h-5.407v-2.88A7.036,7.036,0,1,1,808.934,1120.19Z" transform="translate(-775.906 -1105.66)"/>
</svg>
