<svg xmlns="http://www.w3.org/2000/svg" width="36.656" height="40.97" viewBox="0 0 36.656 40.97">
  <metadata><?xpacket begin="﻿" id="W5M0MpCehiHzreSzNTczkc9d"?>
<x:xmpmeta xmlns:x="adobe:ns:meta/" x:xmptk="Adobe XMP Core 5.6-c138 79.159824, 2016/09/14-01:09:01        ">
   <rdf:RDF xmlns:rdf="http://www.w3.org/1999/02/22-rdf-syntax-ns#">
      <rdf:Description rdf:about=""/>
   </rdf:RDF>
</x:xmpmeta>
                                                                                                    
                                                                                                    
                                                                                                    
                                                                                                    
                                                                                                    
                                                                                                    
                                                                                                    
                                                                                                    
                                                                                                    
                                                                                                    
                                                                                                    
                                                                                                    
                                                                                                    
                                                                                                    
                                                                                                    
                                                                                                    
                                                                                                    
                                                                                                    
                                                                                                    
                                                                                                    
                           
<?xpacket end="w"?></metadata>
<defs>
    <style>
      .cls-1 {
        fill: #2e3653;
        fill-rule: evenodd;
      }
    </style>
  </defs>
  <path class="cls-1" d="M709.653,4142.21a0.9,0.9,0,0,0-1.285,0l-1.705,1.7a2.255,2.255,0,0,0-1.509,0l-3.5-3.5a0.907,0.907,0,1,0-1.284,1.28l3.5,3.51a2.145,2.145,0,0,0-.134.75,2.174,2.174,0,0,0,4.347,0,2.145,2.145,0,0,0-.135-0.75l1.705-1.71A0.9,0.9,0,0,0,709.653,4142.21Zm-3.744,4.28a0.54,0.54,0,1,1,.539-0.54A0.539,0.539,0,0,1,705.909,4146.49Zm10.722-14.31,1.028-1.47,4.126,2.89a0.894,0.894,0,0,0,.521.17,0.844,0.844,0,0,0,.157-0.02,0.886,0.886,0,0,0,.586-0.37,6.583,6.583,0,1,0-10.785-7.55,0.9,0.9,0,0,0,.223,1.26l3.685,2.58-1.029,1.47a17.411,17.411,0,0,0-18.467,0l-1.03-1.47,3.685-2.58a0.9,0.9,0,0,0,.223-1.26,6.583,6.583,0,1,0-10.785,7.55,0.886,0.886,0,0,0,.586.37,0.844,0.844,0,0,0,.157.02,0.9,0.9,0,0,0,.521-0.17l4.125-2.89,1.029,1.47a17.446,17.446,0,0,0,1.109,28.34l-1.439,2.05a0.908,0.908,0,1,0,1.488,1.04l1.52-2.17a17.406,17.406,0,0,0,16.087,0l1.519,2.17a0.917,0.917,0,0,0,.745.39,0.9,0.9,0,0,0,.52-0.16,0.914,0.914,0,0,0,.223-1.27l-1.438-2.05A17.447,17.447,0,0,0,716.631,4132.18Zm-2.287-6.01a4.769,4.769,0,0,1,7.668,5.37Zm-24.537,5.37a4.77,4.77,0,0,1,7.667-5.37Zm16.1,30.05a15.64,15.64,0,1,1,15.642-15.64A15.655,15.655,0,0,1,705.909,4161.59Zm0-28.48a12.84,12.84,0,1,0,12.839,12.84A12.854,12.854,0,0,0,705.909,4133.11Zm8.535,20.09-0.614-.61a0.907,0.907,0,1,0-1.284,1.28l0.614,0.62a11.2,11.2,0,0,1-6.343,2.63v-0.87a0.908,0.908,0,1,0-1.816,0v0.87a11.2,11.2,0,0,1-6.343-2.63l0.614-.62a0.907,0.907,0,1,0-1.285-1.28l-0.613.61a11.143,11.143,0,0,1-2.633-6.34h0.873a0.91,0.91,0,0,0,0-1.82h-0.873a11.143,11.143,0,0,1,2.633-6.34l0.613,0.61a0.907,0.907,0,0,0,1.285-1.28l-0.614-.61a11.2,11.2,0,0,1,6.343-2.64v0.88a0.908,0.908,0,0,0,1.816,0v-0.88a11.207,11.207,0,0,1,6.343,2.64l-0.614.61a0.907,0.907,0,1,0,1.284,1.28l0.614-.61a11.143,11.143,0,0,1,2.633,6.34H716.2a0.91,0.91,0,0,0,0,1.82h0.874A11.143,11.143,0,0,1,714.444,4153.2Z" transform="translate(-687.594 -4123.03)"/>
</svg>
