<svg xmlns="http://www.w3.org/2000/svg" width="15.97" height="13.906" viewBox="0 0 15.97 13.906">
  <metadata><?xpacket begin="﻿" id="W5M0MpCehiHzreSzNTczkc9d"?>
<x:xmpmeta xmlns:x="adobe:ns:meta/" x:xmptk="Adobe XMP Core 5.6-c138 79.159824, 2016/09/14-01:09:01        ">
   <rdf:RDF xmlns:rdf="http://www.w3.org/1999/02/22-rdf-syntax-ns#">
      <rdf:Description rdf:about=""/>
   </rdf:RDF>
</x:xmpmeta>
                                                                                                    
                                                                                                    
                                                                                                    
                                                                                                    
                                                                                                    
                                                                                                    
                                                                                                    
                                                                                                    
                                                                                                    
                                                                                                    
                                                                                                    
                                                                                                    
                                                                                                    
                                                                                                    
                                                                                                    
                                                                                                    
                                                                                                    
                                                                                                    
                                                                                                    
                                                                                                    
                           
<?xpacket end="w"?></metadata>
<defs>
    <style>
      .cls-1 {
        fill: #49d5fe;
        fill-rule: evenodd;
      }
    </style>
  </defs>
  <path id="Shape_9_copy" data-name="Shape 9 copy" class="cls-1" d="M1371.54,101.91l3.68,1.372,1.42,4.578a0.435,0.435,0,0,0,.69.207l2.05-1.671a0.618,0.618,0,0,1,.75-0.021l3.69,2.684a0.432,0.432,0,0,0,.68-0.262l2.71-13.028a0.433,0.433,0,0,0-.58-0.493l-15.09,5.823A0.435,0.435,0,0,0,1371.54,101.91Zm4.87,0.641,7.19-4.426a0.125,0.125,0,0,1,.15.2l-5.93,5.514a1.231,1.231,0,0,0-.38.736l-0.2,1.5a0.184,0.184,0,0,1-.36.026l-0.78-2.731A0.727,0.727,0,0,1,1376.41,102.551Z" transform="translate(-1371.25 -95.25)"/>
</svg>
