<svg xmlns="http://www.w3.org/2000/svg" width="71" height="61.37" viewBox="0 0 71 61.37">
  <metadata><?xpacket begin="﻿" id="W5M0MpCehiHzreSzNTczkc9d"?>
<x:xmpmeta xmlns:x="adobe:ns:meta/" x:xmptk="Adobe XMP Core 5.6-c138 79.159824, 2016/09/14-01:09:01        ">
   <rdf:RDF xmlns:rdf="http://www.w3.org/1999/02/22-rdf-syntax-ns#">
      <rdf:Description rdf:about=""/>
   </rdf:RDF>
</x:xmpmeta>
                                                                                                    
                                                                                                    
                                                                                                    
                                                                                                    
                                                                                                    
                                                                                                    
                                                                                                    
                                                                                                    
                                                                                                    
                                                                                                    
                                                                                                    
                                                                                                    
                                                                                                    
                                                                                                    
                                                                                                    
                                                                                                    
                                                                                                    
                                                                                                    
                                                                                                    
                                                                                                    
                           
<?xpacket end="w"?></metadata>
<defs>
    <style>
      .cls-1 {
        fill: #1f2847;
        fill-opacity: 0;
        stroke: #af82f6;
        stroke-linejoin: round;
        stroke-width: 2px;
        fill-rule: evenodd;
      }
    </style>
  </defs>
  <path class="cls-1" d="M1138.64,1138.21a6.864,6.864,0,0,0-6.33,4.22h-1.94V1133a4.485,4.485,0,0,0-4.48-4.48h-29.78a4.485,4.485,0,0,0-4.48,4.48v9.43h-1.94a6.85,6.85,0,1,0,0,5.26h1.94v13.76a4.485,4.485,0,0,0,4.48,4.48h2.24v1.13a4.485,4.485,0,0,0,4.48,4.48h16.34a4.485,4.485,0,0,0,4.48-4.48v-1.13h2.24a4.485,4.485,0,0,0,4.48-4.48v-13.76h1.94A6.852,6.852,0,1,0,1138.64,1138.21Zm-39.84,4.78a4.885,4.885,0,1,1,4.88,4.88A4.882,4.882,0,0,1,1098.8,1142.99Zm18.27,15.67h-12.14a2.315,2.315,0,0,1,0-4.63h12.14A2.315,2.315,0,0,1,1117.07,1158.66Zm1.25-10.79a4.885,4.885,0,1,1,4.88-4.88A4.882,4.882,0,0,1,1118.32,1147.87Zm-4.39-22.22v2.87h-5.39v-2.87A7.015,7.015,0,1,1,1113.93,1125.65Z" transform="translate(-1075.5 -1111.16)"/>
</svg>
